<svg xmlns="http://www.w3.org/2000/svg" width="900" height="420" viewBox="0 0 900 420">
  <rect width="900" height="420" fill="#f8fafc"/>
  <text x="46" y="52" font-size="28" font-weight="700" fill="#111827">二、读拼音，写词语。（16分）</text>
  <g font-size="22" fill="#111827">
    <text x="95" y="112">qián hòu</text><text x="320" y="112">huā duǒ</text><text x="545" y="112">yīn wèi</text><text x="720" y="112">yùn dòng</text>
    <text x="95" y="252">yǐ jīng</text><text x="320" y="252">gù xiāng</text><text x="545" y="252">shēng yīn</text><text x="720" y="252">zhāo hu</text>
  </g>
  <g fill="none" stroke="#111827" stroke-width="2">
    <rect x="88" y="125" width="104" height="62"/><rect x="310" y="125" width="104" height="62"/><rect x="535" y="125" width="104" height="62"/><rect x="710" y="125" width="124" height="62"/>
    <rect x="88" y="265" width="104" height="62"/><rect x="310" y="265" width="104" height="62"/><rect x="535" y="265" width="104" height="62"/><rect x="710" y="265" width="124" height="62"/>
  </g>
  <g font-size="34" fill="#334155" font-family="serif">
    <text x="98" y="169">前后</text><text x="321" y="169">花朵</text><text x="545" y="169">因为</text><text x="718" y="169">运动</text>
    <text x="98" y="309">已经</text><text x="321" y="309">故乡</text><text x="545" y="309">声音</text><text x="718" y="309">招呼</text>
  </g>
  <path d="M90 188 C126 235 185 170 218 108 M313 188 C350 235 410 170 442 108 M535 188 C572 235 632 170 665 108 M710 188 C748 235 825 170 858 108" fill="none" stroke="#b4233c" stroke-width="5"/>
  <path d="M90 328 C126 375 185 310 218 248 M313 328 C350 375 410 310 442 248 M535 328 C572 375 632 310 665 248 M710 328 C748 375 825 310 858 248" fill="none" stroke="#b4233c" stroke-width="5"/>
  <text x="742" y="65" font-size="54" fill="#b4233c" font-family="cursive">+16</text>
</svg>
